<?xml version="1.0" standalone="no"?>
<!DOCTYPE svg PUBLIC "-//W3C//DTD SVG 20010904//EN"
 "http://www.w3.org/TR/2001/REC-SVG-20010904/DTD/svg10.dtd">
<svg version="1.0" xmlns="http://www.w3.org/2000/svg"
 width="500.000000pt" height="500.000000pt" viewBox="0 0 500.000000 500.000000"
 preserveAspectRatio="xMidYMid meet">

<g transform="translate(0.000000,500.000000) scale(0.100000,-0.100000)"
fill="#000000" stroke="none">
<path d="M1368 3303 c-17 -4 -18 -24 -18 -234 l0 -229 150 0 150 0 0 35 0 34
-97 3 -98 3 -3 57 c-3 48 0 57 16 63 11 3 24 5 28 4 5 -1 35 -1 67 0 l58 1 -3
33 -3 32 -83 3 -83 3 3 62 3 62 98 3 98 3 -3 32 -3 32 -130 1 c-71 1 -138 0
-147 -3z"/>
<path d="M1744 3304 c-8 -3 -10 -60 -7 -192 5 -209 11 -233 73 -265 47 -25
148 -19 187 9 46 34 51 57 56 257 l5 187 -23 6 c-12 3 -36 4 -51 2 l-29 -3 -5
-185 c-3 -102 -9 -191 -13 -197 -5 -7 -23 -13 -42 -13 -19 0 -37 6 -42 13 -4
6 -10 95 -13 197 l-5 185 -40 2 c-22 1 -45 0 -51 -3z"/>
<path d="M2235 3303 c-76 -20 -95 -66 -95 -235 0 -146 10 -178 67 -215 41 -27
162 -25 200 3 46 34 64 79 61 159 l-3 70 -80 0 -80 0 0 -35 c0 -31 3 -35 28
-38 23 -3 27 -8 27 -37 0 -18 -7 -41 -16 -49 -22 -23 -71 -20 -84 3 -5 11 -10
80 -10 154 0 148 5 161 57 155 20 -2 32 -12 43 -35 14 -30 19 -33 64 -33 l49
0 -6 36 c-7 44 -31 72 -74 90 -31 14 -108 17 -148 7z"/>
<path d="M2557 3304 c-4 -4 -7 -110 -7 -236 l0 -228 150 0 150 0 0 35 0 34
-97 3 -98 3 -3 57 c-3 48 0 57 16 63 11 3 24 5 28 4 5 -1 35 -1 67 0 l58 1 -3
33 -3 32 -83 3 -83 3 3 62 3 62 98 3 98 3 -3 32 -3 32 -141 3 c-77 1 -143 -1
-147 -4z"/>
<path d="M2947 3303 c-4 -3 -7 -109 -7 -235 l0 -229 48 3 47 3 5 165 c3 91 7
161 8 157 1 -4 13 -74 27 -155 14 -81 27 -153 30 -160 3 -9 26 -12 82 -10 l77
3 0 230 0 230 -50 0 -49 0 4 -162 c2 -102 0 -163 -6 -163 -6 0 -20 64 -33 143
-32 198 -26 187 -108 187 -38 0 -72 -3 -75 -7z"/>
<path d="M3357 3304 c-4 -4 -7 -110 -7 -236 l0 -228 150 0 150 0 0 35 0 35
-100 0 -101 0 3 63 3 62 75 3 c41 2 79 7 84 12 5 5 6 20 2 34 -6 25 -9 26 -87
26 l-80 0 3 63 3 62 98 3 98 3 -3 32 -3 32 -141 3 c-77 1 -143 -1 -147 -4z"/>
<path d="M2430 2634 c-23 -52 -26 -77 -6 -51 7 9 21 17 31 17 10 0 24 -8 32
-17 13 -16 13 -16 7 6 -10 37 -34 91 -39 91 -3 0 -15 -21 -25 -46z m40 -16 c0
-5 -7 -8 -15 -8 -17 0 -18 2 -9 25 5 13 8 14 15 3 5 -7 9 -16 9 -20z"/>
<path d="M2607 2651 c-3 -16 -9 -40 -13 -55 -3 -15 -2 -26 4 -26 5 0 13 15 16
33 l7 32 15 -35 16 -35 17 34 18 34 6 -32 c4 -17 11 -31 16 -31 5 0 5 17 -1
43 -17 73 -19 75 -38 32 l-17 -40 -16 38 c-9 20 -18 37 -20 37 -3 0 -7 -13
-10 -29z"/>
<path d="M2810 2625 c0 -54 0 -55 30 -55 33 0 54 27 40 50 -5 8 -6 18 -3 22 8
15 -18 38 -43 38 -22 0 -24 -4 -24 -55z m50 24 c0 -5 -7 -9 -15 -9 -8 0 -15 7
-15 15 0 9 6 12 15 9 8 -4 15 -10 15 -15z m5 -49 c0 -8 -8 -16 -17 -18 -13 -2
-18 3 -18 18 0 15 5 20 18 18 9 -2 17 -10 17 -18z"/>
<path d="M3002 2636 c-22 -50 -30 -85 -11 -53 5 9 19 17 31 17 11 0 27 -8 34
-17 9 -11 7 0 -4 27 -11 25 -21 52 -24 60 -3 9 -13 -3 -26 -34z m38 -18 c0 -5
-9 -8 -20 -8 -18 0 -19 3 -9 21 9 17 13 19 20 8 5 -8 9 -17 9 -21z"/>
<path d="M3188 2669 c-26 -15 -24 -75 3 -89 27 -15 66 -5 79 20 10 18 8 20
-22 19 -25 -1 -27 -3 -10 -6 19 -4 21 -7 11 -19 -24 -29 -69 -9 -69 31 0 43
39 58 72 28 10 -9 18 -11 18 -5 0 13 -32 32 -52 32 -7 0 -21 -5 -30 -11z"/>
<path d="M3370 2678 c6 -41 29 -109 33 -98 4 8 11 29 18 45 l11 30 18 -45 c19
-48 24 -44 34 35 l6 40 -13 -40 -13 -40 -16 39 -15 40 -13 -37 c-15 -39 -30
-40 -30 -2 0 13 -4 27 -10 30 -5 3 -10 5 -10 3z"/>
<path d="M3603 2625 c-11 -30 -17 -55 -12 -55 5 0 9 7 9 15 0 23 60 20 61 -2
0 -10 3 -13 5 -7 4 10 -31 104 -38 104 -2 0 -13 -25 -25 -55z m40 5 c4 -15 0
-20 -13 -20 -13 0 -17 5 -13 20 3 11 9 20 13 20 4 0 10 -9 13 -20z"/>
</g>
</svg>
